<svg width="82" height="86" viewBox="0 0 82 86" fill="none" xmlns="http://www.w3.org/2000/svg">
<path d="M63 83V9C63 7.4087 62.3679 5.88258 61.2426 4.75736C60.1174 3.63214 58.5913 3 57 3H9C7.4087 3 5.88258 3.63214 4.75736 4.75736C3.63214 5.88258 3 7.4087 3 9V77C3 78.5913 3.63214 80.1174 4.75736 81.2426C5.88258 82.3679 7.4087 83 9 83H63ZM63 83H73C74.5913 83 76.1174 82.3679 77.2426 81.2426C78.3679 80.1174 79 78.5913 79 77V43C79 41.9391 78.5786 40.9217 77.8284 40.1716C77.0783 39.4214 76.0609 39 75 39H67C65.9391 39 64.9217 39.4214 64.1716 40.1716C63.4214 40.9217 63 41.9391 63 43V83Z" stroke="#DA5D15" stroke-width="5" stroke-linejoin="round"/>
<path d="M15 19H31M15 33H39" stroke="#DA5D15" stroke-width="5" stroke-linecap="round" stroke-linejoin="round"/>
</svg>
