<svg width="95" height="86" viewBox="0 0 95 86" fill="none" xmlns="http://www.w3.org/2000/svg">
<path d="M12.9259 18H17.8889C20.5214 18 23.0461 16.9464 24.9075 15.0711C26.769 13.1957 27.8148 10.6522 27.8148 8C27.8148 6.67392 28.3377 5.40215 29.2684 4.46447C30.1991 3.52679 31.4615 3 32.7777 3H62.5555C63.8717 3 65.1341 3.52679 66.0648 4.46447C66.9955 5.40215 67.5184 6.67392 67.5184 8C67.5184 10.6522 68.5642 13.1957 70.4256 15.0711C72.2871 16.9464 74.8118 18 77.4443 18H82.4073C85.0398 18 87.5645 19.0536 89.4259 20.9289C91.2874 22.8043 92.3332 25.3478 92.3332 28V73C92.3332 75.6522 91.2874 78.1957 89.4259 80.0711C87.5645 81.9464 85.0398 83 82.4073 83H12.9259C10.2934 83 7.7687 81.9464 5.90723 80.0711C4.04576 78.1957 3 75.6522 3 73V28C3 25.3478 4.04576 22.8043 5.90723 20.9289C7.7687 19.0536 10.2934 18 12.9259 18Z" stroke="#DA5D15" stroke-width="5" stroke-linecap="round" stroke-linejoin="round"/>
<path d="M32.3333 43.6673C32.3333 47.734 33.9487 51.6341 36.8243 54.5096C39.6998 57.3852 43.5999 59.0007 47.6666 59.0007C51.7332 59.0007 55.6333 57.3852 58.5088 54.5096C61.3844 51.6341 62.9999 47.734 62.9999 43.6673C62.9999 39.6007 61.3844 35.7006 58.5088 32.825C55.6333 29.9495 51.7332 28.334 47.6666 28.334C43.5999 28.334 39.6998 29.9495 36.8243 32.825C33.9487 35.7006 32.3333 39.6007 32.3333 43.6673Z" stroke="#DA5D15" stroke-width="5" stroke-linecap="round" stroke-linejoin="round"/>
</svg>
