<svg width="93" height="86" viewBox="0 0 93 86" fill="none" xmlns="http://www.w3.org/2000/svg">
<path d="M90.0588 47.7059V26.5294C90.0588 20.289 87.5798 14.3042 83.1672 9.89161C78.7546 5.47898 72.7698 3 66.5294 3H26.5294C20.289 3 14.3042 5.47898 9.8916 9.89161C5.47898 14.3042 3 20.289 3 26.5294V59.4706C3 62.5605 3.60861 65.6202 4.79107 68.4749C5.97353 71.3296 7.7067 73.9235 9.8916 76.1084C14.3042 80.521 20.289 83 26.5294 83H55.9882" stroke="#DA5D15" stroke-width="5" stroke-linecap="round" stroke-linejoin="round"/>
<path d="M4.22363 66.5275L17.1177 51.4687C18.8111 49.7869 21.0336 48.7418 23.4089 48.5102C25.7843 48.2787 28.1668 48.875 30.153 50.1981C32.1393 51.5213 34.5218 52.1176 36.8971 51.886C39.2725 51.6545 41.495 50.6094 43.1883 48.9275L54.153 37.9628C57.3036 34.8016 61.4749 32.8626 65.9226 32.492C70.3703 32.1213 74.8051 33.3431 78.4354 35.9393L90.0589 44.9275M27.753 34.3864C28.7789 34.3802 29.7935 34.172 30.7389 33.7737C31.6843 33.3754 32.542 32.7948 33.263 32.0651C33.984 31.3353 34.5543 30.4707 34.9411 29.5206C35.328 28.5704 35.5239 27.5534 35.5177 26.5275C35.5116 25.5017 35.3034 24.4871 34.9051 23.5417C34.5068 22.5963 33.9262 21.7386 33.1965 21.0176C32.4667 20.2966 31.6021 19.7263 30.6519 19.3395C29.7018 18.9526 28.6848 18.7567 27.6589 18.7628C25.5871 18.7753 23.6051 19.6103 22.149 21.0841C20.6928 22.5579 19.8817 24.5499 19.8942 26.6217C19.9067 28.6935 20.7417 30.6755 22.2155 32.1316C23.6893 33.5878 25.6812 34.3988 27.753 34.3864Z" stroke="#DA5D15" stroke-width="5" stroke-linecap="round" stroke-linejoin="round"/>
<path d="M78.0918 57.1172V80.6466" stroke="#DA5D15" stroke-width="5" stroke-miterlimit="10" stroke-linecap="round"/>
<path d="M88.8824 67.0258L79.626 57.7693C79.4248 57.5673 79.1858 57.4069 78.9225 57.2975C78.6592 57.1881 78.377 57.1318 78.0919 57.1318C77.8068 57.1318 77.5245 57.1881 77.2612 57.2975C76.9979 57.4069 76.7589 57.5673 76.5577 57.7693L67.3013 67.0258" stroke="#DA5D15" stroke-width="5" stroke-linecap="round" stroke-linejoin="round"/>
</svg>
