<svg width="109" height="109" viewBox="0 0 109 109" fill="none" xmlns="http://www.w3.org/2000/svg">
<path d="M41.0881 42.2823C41.0887 40.3286 41.4866 38.3958 42.2571 36.6034C43.0277 34.8109 44.1545 33.1969 45.5679 31.8612C46.9814 30.5254 48.6514 29.4962 50.4748 28.8372C52.2982 28.1783 54.2362 27.9035 56.169 28.03C58.1018 28.1564 59.9884 28.6813 61.7122 29.5723C63.4359 30.4634 64.9601 31.7015 66.1907 33.2102C67.4212 34.719 68.3319 36.4662 68.8665 38.344C69.401 40.2218 69.5481 42.1903 69.2986 44.1277C72.0242 45.6796 74.1635 48.0985 75.3822 51.0064C76.6009 53.9143 76.8304 57.1474 76.0348 60.2008C75.2393 63.2542 73.4635 65.9557 70.9849 67.8835C68.5062 69.8113 65.4644 70.8567 62.3345 70.8565H57.613V78H52.8916V70.8565H46.9898C44.03 70.8578 41.1586 69.8391 38.8514 67.9692C36.5441 66.0992 34.9395 63.4902 34.3034 60.5745C33.6673 57.6588 34.0379 54.6114 35.3539 51.9373C36.6698 49.2631 38.852 47.1227 41.5389 45.8707C41.2385 44.6987 41.087 43.4929 41.0881 42.2823ZM43.4724 50.2164C41.7758 51.0254 40.4027 52.3926 39.5785 54.0931C38.7544 55.7937 38.5284 57.7264 38.9376 59.5737C39.3469 61.421 40.367 63.0729 41.8304 64.2579C43.2938 65.4429 45.1133 66.0904 46.9898 66.0941H62.3345C64.5376 66.0964 66.6723 65.3216 68.3688 63.9038C70.0653 62.486 71.217 60.5145 71.6243 58.3305C72.0317 56.1466 71.6692 53.8877 70.5995 51.9449C69.5298 50.0021 67.8203 48.4978 65.7669 47.6923L63.7816 46.9113C64.1994 45.3873 64.6952 43.8824 64.6952 42.2823C64.6952 40.6587 64.2837 39.0621 63.4999 37.6441C62.7161 36.226 61.5859 35.0336 60.2167 34.1801C58.8475 33.3265 57.2847 32.8402 55.6768 32.7672C54.0688 32.6942 52.469 33.037 51.0294 33.7631C49.5897 34.4892 48.3579 35.5744 47.451 36.9157C46.5441 38.257 45.9922 39.8099 45.8476 41.4269C45.7031 43.0439 45.9707 44.6713 46.6251 46.1546C47.2795 47.638 48.2989 48.9279 49.5866 49.9021L46.7538 53.712C45.4718 52.7424 44.3623 51.5604 43.4724 50.2164Z" fill="#DA5D15"/>
<rect x="2" y="2" width="105" height="105" rx="6" stroke="#DA5D15" stroke-width="4" stroke-dasharray="25 25"/>
</svg>
