<svg width="100" height="54" viewBox="0 0 100 54" fill="none" xmlns="http://www.w3.org/2000/svg">
<path d="M5.67044 22.4258C5.67097 20.8629 5.98928 19.3166 6.60571 17.8827C7.22214 16.4487 8.12359 15.1576 9.25434 14.0889C10.3851 13.0203 11.7211 12.197 13.1798 11.6698C14.6385 11.1426 16.1889 10.9228 17.7352 11.024C19.2815 11.1251 20.7907 11.5451 22.1697 12.2579C23.5487 12.9707 24.7681 13.9612 25.7525 15.1682C26.737 16.3752 27.4655 17.773 27.8932 19.2752C28.3208 20.7775 28.4385 22.3522 28.2389 23.9022C30.4194 25.1437 32.1308 27.0788 33.1057 29.4051C34.0807 31.7314 34.2643 34.3179 33.6279 36.7606C32.9914 39.2033 31.5708 41.3646 29.5879 42.9068C27.605 44.4491 25.1715 45.2854 22.6676 45.2852H18.8904V51H15.1133V45.2852H10.3919C8.02404 45.2862 5.7269 44.4713 3.88109 42.9753C2.03528 41.4794 0.751589 39.3922 0.242719 37.0596C-0.266151 34.7271 0.0303448 32.2891 1.08308 30.1498C2.13582 28.0105 3.8816 26.2982 6.03116 25.2966C5.79083 24.3589 5.66962 23.3943 5.67044 22.4258ZM7.5779 28.7731C6.22067 29.4203 5.12213 30.514 4.46283 31.8745C3.80354 33.2349 3.62273 34.7812 3.95012 36.259C4.27751 37.7368 5.09362 39.0583 6.26431 40.0063C7.435 40.9543 8.89061 41.4723 10.3919 41.4753H22.6676C24.4301 41.4771 26.1378 40.8573 27.495 39.723C28.8523 38.5888 29.7736 37.0116 30.0995 35.2644C30.4254 33.5173 30.1353 31.7101 29.2796 30.1559C28.4238 28.6017 27.0562 27.3982 25.4136 26.7539L23.8253 26.129C24.1595 24.9099 24.5561 23.7059 24.5561 22.4258C24.5561 21.127 24.227 19.8497 23.5999 18.7153C22.9729 17.5808 22.0687 16.6269 20.9734 15.944C19.878 15.2612 18.6278 14.8721 17.3414 14.8137C16.055 14.7554 14.7752 15.0296 13.6235 15.6105C12.4718 16.1913 11.4863 17.0595 10.7608 18.1326C10.0353 19.2056 9.59375 20.4479 9.47811 21.7415C9.36247 23.0351 9.57657 24.3371 10.1001 25.5237C10.6236 26.7104 11.4392 27.7423 12.4693 28.5216L10.203 31.5696C9.17746 30.7939 8.28983 29.8483 7.5779 28.7731Z" fill="#DA5D15"/>
<path d="M41.9951 0.75C42.1607 0.750037 42.325 0.783594 42.4775 0.848633C42.6289 0.913231 42.7658 1.00774 42.8809 1.12598C42.998 1.24406 43.0911 1.38472 43.1543 1.53906C43.2175 1.69343 43.25 1.85936 43.25 2.02637C43.25 2.19321 43.2174 2.35847 43.1543 2.5127C43.0912 2.66677 42.9976 2.80587 42.8809 2.92383L42.8818 2.9248L32.1465 13.873C31.6535 14.3759 30.8543 14.3759 30.3613 13.873L26.1172 9.54102V9.54004C26.0009 9.4223 25.9086 9.28253 25.8457 9.12891C25.7826 8.97467 25.75 8.80942 25.75 8.64258C25.75 8.47557 25.7825 8.30964 25.8457 8.15527C25.9089 8.00097 26.0021 7.86024 26.1191 7.74219C26.2342 7.62397 26.3711 7.52943 26.5225 7.46484C26.675 7.39981 26.8393 7.36625 27.0049 7.36621C27.1705 7.36621 27.3347 7.39981 27.4873 7.46484C27.6395 7.52974 27.7771 7.62504 27.8926 7.74414L31.2578 11.1797L41.1074 1.12695C41.2228 1.00806 41.3607 0.913454 41.5127 0.848633C41.6653 0.783583 41.8294 0.75 41.9951 0.75Z" fill="#344F41" stroke="#344F41" stroke-width="0.5"/>
<g filter="url(#filter0_fn_352_243)">
<path d="M64.6704 22.4258C64.671 20.8629 64.9893 19.3166 65.6057 17.8827C66.2221 16.4487 67.1236 15.1576 68.2543 14.0889C69.3851 13.0203 70.7211 12.197 72.1798 11.6698C73.6385 11.1426 75.1889 10.9228 76.7352 11.024C78.2815 11.1251 79.7907 11.5451 81.1697 12.2579C82.5487 12.9707 83.7681 13.9612 84.7525 15.1682C85.737 16.3752 86.4655 17.773 86.8932 19.2752C87.3208 20.7775 87.4385 22.3522 87.2389 23.9022C89.4194 25.1437 91.1308 27.0788 92.1057 29.4051C93.0807 31.7314 93.2643 34.3179 92.6279 36.7606C91.9914 39.2033 90.5708 41.3646 88.5879 42.9068C86.605 44.4491 84.1715 45.2854 81.6676 45.2852H77.8904V51H74.1133V45.2852H69.3919C67.024 45.2862 64.7269 44.4713 62.8811 42.9753C61.0353 41.4794 59.7516 39.3922 59.2427 37.0596C58.7338 34.7271 59.0303 32.2891 60.0831 30.1498C61.1358 28.0105 62.8816 26.2982 65.0312 25.2966C64.7908 24.3589 64.6696 23.3943 64.6704 22.4258ZM66.5779 28.7731C65.2207 29.4203 64.1221 30.514 63.4628 31.8745C62.8035 33.2349 62.6227 34.7812 62.9501 36.259C63.2775 37.7368 64.0936 39.0583 65.2643 40.0063C66.435 40.9543 67.8906 41.4723 69.3919 41.4753H81.6676C83.4301 41.4771 85.1378 40.8573 86.495 39.723C87.8523 38.5888 88.7736 37.0116 89.0995 35.2644C89.4254 33.5173 89.1353 31.7101 88.2796 30.1559C87.4238 28.6017 86.0562 27.3982 84.4136 26.7539L82.8253 26.129C83.1595 24.9099 83.5561 23.7059 83.5561 22.4258C83.5561 21.127 83.227 19.8497 82.5999 18.7153C81.9729 17.5808 81.0687 16.6269 79.9734 15.944C78.878 15.2612 77.6278 14.8721 76.3414 14.8137C75.055 14.7554 73.7752 15.0296 72.6235 15.6105C71.4718 16.1913 70.4863 17.0595 69.7608 18.1326C69.0353 19.2056 68.5937 20.4479 68.4781 21.7415C68.3625 23.0351 68.5766 24.3371 69.1001 25.5237C69.6236 26.7104 70.4392 27.7423 71.4693 28.5216L69.203 31.5696C68.1775 30.7939 67.2898 29.8483 66.5779 28.7731Z" fill="#DA5D15"/>
</g>
<path d="M98.3379 1.5C98.4973 1.49941 98.6547 1.52703 98.7998 1.58105C98.9448 1.63507 99.0737 1.71371 99.1797 1.80957C99.2855 1.9053 99.366 2.01653 99.4199 2.13477C99.4738 2.25294 99.5006 2.37766 99.5 2.50195C99.4994 2.62626 99.472 2.75123 99.417 2.86914C99.362 2.98709 99.2797 3.09734 99.1729 3.19238L99.1592 3.20508L99.1455 3.21875L95.3369 7.15332L95 7.50098L95.3369 7.84863L99.1455 11.7822L99.1572 11.7939L99.1699 11.8047C99.2755 11.9 99.3562 12.0111 99.4102 12.1289C99.464 12.2464 99.4912 12.3705 99.4912 12.4941C99.4912 12.6178 99.464 12.7419 99.4102 12.8594C99.3562 12.977 99.2754 13.0873 99.1699 13.1826C98.9559 13.3761 98.6553 13.4922 98.333 13.4922C98.0124 13.4921 97.7138 13.3773 97.5 13.1855L93.8604 9.42285L93.501 9.05176L93.1416 9.42285L89.4951 13.1904C89.3913 13.2843 89.2655 13.3611 89.124 13.415C88.9795 13.4701 88.8225 13.4994 88.6631 13.5C88.5039 13.5005 88.3471 13.4729 88.2021 13.4189C88.0572 13.365 87.9283 13.2863 87.8223 13.1904C87.7163 13.0946 87.635 12.9836 87.5811 12.8652C87.5272 12.7471 87.5004 12.6223 87.501 12.498C87.5015 12.3737 87.53 12.2488 87.585 12.1309C87.64 12.013 87.7223 11.9026 87.8291 11.8076L87.8428 11.7949L87.8555 11.7822L91.6641 7.84863L92.001 7.50098L91.6641 7.15332L87.8545 3.21875L87.8408 3.20508L87.8271 3.19238C87.7203 3.09734 87.638 2.98709 87.583 2.86914C87.528 2.75123 87.5006 2.62626 87.5 2.50195C87.4994 2.37767 87.5262 2.25294 87.5801 2.13477C87.634 2.01653 87.7145 1.9053 87.8203 1.80957C87.9263 1.71371 88.0552 1.63507 88.2002 1.58105C88.3453 1.52703 88.5027 1.49941 88.6621 1.5C88.8215 1.50059 88.9786 1.52991 89.123 1.58496C89.2657 1.63935 89.3918 1.71757 89.4961 1.8125L93.1416 5.5791L93.501 5.9502L93.8604 5.5791L97.5029 1.8125C97.6073 1.71735 97.7341 1.63944 97.877 1.58496C98.0214 1.52991 98.1785 1.50059 98.3379 1.5Z" fill="#344F41" stroke="#344F41"/>
<defs>
<filter id="filter0_fn_352_243" x="56" y="8" width="40" height="46" filterUnits="userSpaceOnUse" color-interpolation-filters="sRGB">
<feFlood flood-opacity="0" result="BackgroundImageFix"/>
<feBlend mode="normal" in="SourceGraphic" in2="BackgroundImageFix" result="shape"/>
<feGaussianBlur stdDeviation="1.5" result="effect1_foregroundBlur_352_243"/>
<feTurbulence type="fractalNoise" baseFrequency="3.3333332538604736 3.3333332538604736" stitchTiles="stitch" numOctaves="3" result="noise" seed="4089" />
<feColorMatrix in="noise" type="luminanceToAlpha" result="alphaNoise" />
<feComponentTransfer in="alphaNoise" result="coloredNoise1">
<feFuncA type="discrete" tableValues="1 1 1 1 1 1 1 1 1 1 1 1 1 1 1 1 1 1 1 1 1 1 1 1 1 1 1 1 1 1 1 1 1 1 1 1 1 1 1 1 1 1 1 1 1 1 1 1 1 1 1 0 0 0 0 0 0 0 0 0 0 0 0 0 0 0 0 0 0 0 0 0 0 0 0 0 0 0 0 0 0 0 0 0 0 0 0 0 0 0 0 0 0 0 0 0 0 0 0 0 "/>
</feComponentTransfer>
<feComposite operator="in" in2="effect1_foregroundBlur_352_243" in="coloredNoise1" result="noise1Clipped" />
<feFlood flood-color="rgba(0, 0, 0, 0.25)" result="color1Flood" />
<feComposite operator="in" in2="noise1Clipped" in="color1Flood" result="color1" />
<feMerge result="effect2_noise_352_243">
<feMergeNode in="effect1_foregroundBlur_352_243" />
<feMergeNode in="color1" />
</feMerge>
</filter>
</defs>
</svg>
