<svg width="100" height="97" viewBox="0 0 100 97" fill="none" xmlns="http://www.w3.org/2000/svg">
<path d="M43 29.5H46.0556M70.5 2V5.05556M94.9444 29.5H98M70.5 53.9444V57M50.9444 9.94444L53.0833 12.0833M90.0556 9.94444L87.9167 12.0833M87.9167 46.9167L90.0556 49.0556M53.0833 46.9167L50.9444 49.0556M58.2778 29.5C58.2778 32.7415 59.5655 35.8503 61.8576 38.1424C64.1497 40.4345 67.2585 41.7222 70.5 41.7222C73.7415 41.7222 76.8503 40.4345 79.1424 38.1424C81.4345 35.8503 82.7222 32.7415 82.7222 29.5C82.7222 26.2585 81.4345 23.1497 79.1424 20.8576C76.8503 18.5655 73.7415 17.2778 70.5 17.2778C67.2585 17.2778 64.1497 18.5655 61.8576 20.8576C59.5655 23.1497 58.2778 26.2585 58.2778 29.5Z" stroke="#DA5D15" stroke-width="4" stroke-linecap="round" stroke-linejoin="round"/>
<path d="M7.17144 61.2823C7.1721 59.3286 7.57468 57.3958 8.35428 55.6034C9.13389 53.8109 10.274 52.1969 11.704 50.8612C13.1341 49.5254 14.8238 48.4962 16.6686 47.8372C18.5134 47.1783 20.4742 46.9035 22.4298 47.03C24.3854 47.1564 26.2942 47.6813 28.0382 48.5723C29.7822 49.4634 31.3244 50.7015 32.5694 52.2102C33.8144 53.719 34.7358 55.4662 35.2767 57.344C35.8175 59.2218 35.9663 61.1903 35.7139 63.1277C38.4715 64.6796 40.636 67.0985 41.869 70.0064C43.102 72.9143 43.3342 76.1474 42.5293 79.2008C41.7244 82.2542 39.9278 84.9557 37.42 86.8835C34.9122 88.8113 31.8345 89.8567 28.6678 89.8565H23.8908V97H19.1139V89.8565H13.1427C10.148 89.8578 7.24285 88.8391 4.90844 86.9692C2.57403 85.0992 0.950539 82.4902 0.306968 79.5745C-0.336603 76.6588 0.0383773 73.6114 1.36978 70.9373C2.70118 68.2631 4.90908 66.1227 7.62764 64.8707C7.3237 63.6987 7.1704 62.4929 7.17144 61.2823ZM9.58381 69.2164C7.86732 70.0254 6.47798 71.3926 5.64417 73.0931C4.81036 74.7937 4.58168 76.7264 4.99574 78.5737C5.40979 80.421 6.44193 82.0729 7.92251 83.2579C9.40309 84.4429 11.244 85.0904 13.1427 85.0941H28.6678C30.8969 85.0964 33.0566 84.3216 34.7731 82.9038C36.4896 81.486 37.6548 79.5145 38.067 77.3305C38.4791 75.1466 38.1123 72.8877 37.0301 70.9449C35.9478 69.0021 34.2182 67.4978 32.1407 66.6923L30.132 65.9113C30.5547 64.3873 31.0563 62.8824 31.0563 61.2823C31.0563 59.6587 30.64 58.0621 29.847 56.6441C29.0539 55.226 27.9105 54.0336 26.5252 53.1801C25.1398 52.3265 23.5587 51.8402 21.9318 51.7672C20.3049 51.6942 18.6863 52.037 17.2297 52.7631C15.7731 53.4892 14.5268 54.5744 13.6093 55.9157C12.6917 57.257 12.1333 58.8099 11.987 60.4269C11.8408 62.0439 12.1115 63.6713 12.7736 65.1546C13.4357 66.638 14.4672 67.9279 15.77 68.9021L12.9038 72.712C11.6068 71.7424 10.4842 70.5604 9.58381 69.2164Z" fill="#DA5D15"/>
</svg>
