<svg width="71" height="89" viewBox="0 0 71 89" fill="none" xmlns="http://www.w3.org/2000/svg">
<path d="M50.75 20.25H55.25V9H50.75V20.25ZM53 29.25C53.6375 29.25 54.1722 29.034 54.6042 28.602C55.0362 28.17 55.2515 27.636 55.25 27C55.2485 26.364 55.0325 25.83 54.602 25.398C54.1715 24.966 53.6375 24.75 53 24.75C52.3625 24.75 51.8285 24.966 51.398 25.398C50.9675 25.83 50.7515 26.364 50.75 27C50.7485 27.636 50.9645 28.1707 51.398 28.6042C51.8315 29.0377 52.3655 29.253 53 29.25ZM53 45C46.9625 39.8625 42.4535 35.091 39.473 30.6855C36.4925 26.28 35.0015 22.2015 35 18.45C35 12.825 36.8098 8.34375 40.4292 5.00625C44.0487 1.66875 48.239 0 53 0C57.761 0 61.952 1.66875 65.573 5.00625C69.194 8.34375 71.003 12.825 71 18.45C71 22.2 69.5097 26.2785 66.5292 30.6855C63.5487 35.0925 59.039 39.864 53 45Z" fill="#DA5D15"/>
<path d="M7.17144 53.2823C7.1721 51.3286 7.57468 49.3958 8.35428 47.6034C9.13389 45.8109 10.274 44.1969 11.704 42.8612C13.1341 41.5254 14.8238 40.4962 16.6686 39.8372C18.5134 39.1783 20.4742 38.9035 22.4298 39.03C24.3854 39.1564 26.2942 39.6813 28.0382 40.5723C29.7822 41.4634 31.3244 42.7015 32.5694 44.2102C33.8144 45.719 34.7358 47.4662 35.2767 49.344C35.8175 51.2218 35.9663 53.1903 35.7139 55.1277C38.4715 56.6796 40.636 59.0985 41.869 62.0064C43.102 64.9143 43.3342 68.1474 42.5293 71.2008C41.7244 74.2542 39.9278 76.9557 37.42 78.8835C34.9122 80.8113 31.8345 81.8567 28.6678 81.8565H23.8908V89H19.1139V81.8565H13.1427C10.148 81.8578 7.24285 80.8391 4.90844 78.9692C2.57403 77.0992 0.950539 74.4902 0.306968 71.5745C-0.336603 68.6588 0.0383773 65.6114 1.36978 62.9373C2.70118 60.2631 4.90908 58.1227 7.62764 56.8707C7.3237 55.6987 7.1704 54.4929 7.17144 53.2823ZM9.58381 61.2164C7.86732 62.0254 6.47798 63.3926 5.64417 65.0931C4.81036 66.7937 4.58168 68.7264 4.99574 70.5737C5.40979 72.421 6.44193 74.0729 7.92251 75.2579C9.40309 76.4429 11.244 77.0904 13.1427 77.0941H28.6678C30.8969 77.0964 33.0566 76.3216 34.7731 74.9038C36.4896 73.486 37.6548 71.5145 38.067 69.3305C38.4791 67.1466 38.1123 64.8877 37.0301 62.9449C35.9478 61.0021 34.2182 59.4978 32.1407 58.6923L30.132 57.9113C30.5547 56.3873 31.0563 54.8824 31.0563 53.2823C31.0563 51.6587 30.64 50.0621 29.847 48.6441C29.0539 47.226 27.9105 46.0336 26.5252 45.1801C25.1398 44.3265 23.5587 43.8402 21.9318 43.7672C20.3049 43.6942 18.6863 44.037 17.2297 44.7631C15.7731 45.4892 14.5268 46.5744 13.6093 47.9157C12.6917 49.257 12.1333 50.8099 11.987 52.4269C11.8408 54.0439 12.1115 55.6713 12.7736 57.1546C13.4357 58.638 14.4672 59.9279 15.77 60.9021L12.9038 64.712C11.6068 63.7424 10.4842 62.5604 9.58381 61.2164Z" fill="#DA5D15"/>
</svg>
