<svg width="87" height="87" viewBox="0 0 87 87" fill="none" xmlns="http://www.w3.org/2000/svg">
<path d="M29.0881 51.2823C29.0887 49.3286 29.4866 47.3958 30.2571 45.6034C31.0277 43.8109 32.1545 42.1969 33.5679 40.8612C34.9814 39.5254 36.6514 38.4962 38.4748 37.8372C40.2982 37.1783 42.2362 36.9035 44.169 37.03C46.1018 37.1564 47.9884 37.6813 49.7122 38.5723C51.4359 39.4634 52.9601 40.7015 54.1907 42.2102C55.4212 43.719 56.3319 45.4662 56.8665 47.344C57.401 49.2218 57.5481 51.1903 57.2986 53.1277C60.0242 54.6796 62.1635 57.0985 63.3822 60.0064C64.6009 62.9143 64.8304 66.1474 64.0348 69.2008C63.2393 72.2542 61.4635 74.9557 58.9849 76.8835C56.5062 78.8113 53.4644 79.8567 50.3345 79.8565H45.613V87H40.8916V79.8565H34.9898C32.03 79.8578 29.1586 78.8391 26.8514 76.9692C24.5441 75.0992 22.9395 72.4902 22.3034 69.5745C21.6673 66.6588 22.0379 63.6114 23.3539 60.9373C24.6698 58.2631 26.852 56.1227 29.5389 54.8707C29.2385 53.6987 29.087 52.4929 29.0881 51.2823ZM31.4724 59.2164C29.7758 60.0254 28.4027 61.3926 27.5785 63.0931C26.7544 64.7937 26.5284 66.7264 26.9376 68.5737C27.3469 70.421 28.367 72.0729 29.8304 73.2579C31.2938 74.4429 33.1133 75.0904 34.9898 75.0941H50.3345C52.5376 75.0964 54.6723 74.3216 56.3688 72.9038C58.0653 71.486 59.217 69.5145 59.6243 67.3305C60.0317 65.1466 59.6692 62.8877 58.5995 60.9449C57.5298 59.0021 55.8203 57.4978 53.7669 56.6923L51.7816 55.9113C52.1994 54.3873 52.6952 52.8824 52.6952 51.2823C52.6952 49.6587 52.2837 48.0621 51.4999 46.6441C50.7161 45.226 49.5859 44.0336 48.2167 43.1801C46.8475 42.3265 45.2847 41.8402 43.6768 41.7672C42.0688 41.6942 40.469 42.037 39.0294 42.7631C37.5897 43.4892 36.3579 44.5744 35.451 45.9157C34.5441 47.257 33.9922 48.8099 33.8476 50.4269C33.7031 52.0439 33.9707 53.6713 34.6251 55.1546C35.2795 56.638 36.2989 57.9279 37.5866 58.9021L34.7538 62.712C33.4718 61.7424 32.3623 60.5604 31.4724 59.2164Z" fill="#DA5D15"/>
<path d="M35.003 10.0815C35.0035 8.70245 35.2844 7.33814 35.8283 6.0729C36.3722 4.80767 37.1676 3.66839 38.1653 2.7255C39.163 1.78261 40.3418 1.05614 41.6289 0.590989C42.916 0.125838 44.284 -0.0681069 45.6483 0.0211426C47.0127 0.110392 48.3444 0.480939 49.5611 1.10988C50.7778 1.73882 51.8538 2.61279 52.7224 3.67777C53.591 4.74275 54.2338 5.9761 54.6112 7.3016C54.9885 8.6271 55.0923 10.0166 54.9162 11.3841C56.8401 12.4796 58.3502 14.187 59.2104 16.2396C60.0707 18.2922 60.2327 20.5745 59.6711 22.7297C59.1095 24.885 57.8561 26.792 56.1065 28.1528C54.3569 29.5136 52.2097 30.2515 50.0004 30.2513H46.6676V35.2938H43.3349V30.2513H39.169C37.0797 30.2523 35.0529 29.5332 33.4242 28.2132C31.7956 26.8933 30.6629 25.0517 30.2139 22.9936C29.7649 20.9354 30.0265 18.7844 30.9554 16.8967C31.8843 15.0091 33.4247 13.4983 35.3213 12.6145C35.1093 11.7872 35.0023 10.936 35.003 10.0815ZM36.6861 15.682C35.4885 16.2531 34.5192 17.2181 33.9375 18.4185C33.3558 19.6189 33.1962 20.9832 33.4851 22.2871C33.774 23.5911 34.4941 24.7571 35.527 25.5936C36.56 26.43 37.8443 26.8871 39.169 26.8897H50.0004C51.5555 26.8913 53.0623 26.3444 54.2599 25.3436C55.4574 24.3428 56.2703 22.9512 56.5579 21.4096C56.8454 19.868 56.5895 18.2735 55.8344 16.9021C55.0794 15.5308 53.8727 14.4689 52.4233 13.9003L51.0218 13.349C51.3168 12.2733 51.6667 11.211 51.6667 10.0815C51.6667 8.93548 51.3763 7.80848 50.823 6.80752C50.2698 5.80655 49.472 4.96486 48.5055 4.36235C47.539 3.75985 46.4359 3.41655 45.3009 3.36503C44.1658 3.31352 43.0366 3.55552 42.0204 4.06803C41.0041 4.58055 40.1347 5.34658 39.4945 6.29338C38.8543 7.24019 38.4647 8.33633 38.3627 9.47772C38.2607 10.6191 38.4496 11.7679 38.9115 12.8149C39.3734 13.862 40.093 14.7725 41.002 15.4601L39.0023 18.1494C38.0974 17.465 37.3142 16.6307 36.6861 15.682Z" fill="#DA5D15" fill-opacity="0.2"/>
<path d="M20.003 17.1411C20.0035 15.762 20.2844 14.3977 20.8283 13.1325C21.3722 11.8672 22.1676 10.728 23.1653 9.78507C24.163 8.84218 25.3418 8.11571 26.6289 7.65056C27.916 7.18541 29.284 6.99146 30.6483 7.08071C32.0127 7.16996 33.3444 7.54051 34.5611 8.16945C35.7778 8.79839 36.8538 9.67236 37.7224 10.7373C38.591 11.8023 39.2338 13.0357 39.6112 14.3612C39.9885 15.6867 40.0923 17.0761 39.9162 18.4437C41.8401 19.5392 43.3502 21.2466 44.2104 23.2992C45.0707 25.3518 45.2327 27.634 44.6711 29.7893C44.1095 31.9446 42.8561 33.8516 41.1065 35.2124C39.3569 36.5732 37.2097 37.3111 35.0004 37.3109H31.6676V42.3533H28.3349V37.3109H24.169C22.0797 37.3118 20.0529 36.5928 18.4242 35.2728C16.7956 33.9529 15.6629 32.1112 15.2139 30.0531C14.7649 27.995 15.0265 25.8439 15.9554 23.9563C16.8843 22.0687 18.4247 20.5578 20.3213 19.6741C20.1093 18.8468 20.0023 17.9956 20.003 17.1411ZM21.6861 22.7416C20.4885 23.3126 19.5192 24.2777 18.9375 25.4781C18.3558 26.6784 18.1962 28.0427 18.4851 29.3467C18.774 30.6507 19.4941 31.8167 20.527 32.6531C21.56 33.4896 22.8443 33.9467 24.169 33.9493H35.0004C36.5555 33.9509 38.0623 33.404 39.2599 32.4032C40.4574 31.4024 41.2703 30.0107 41.5579 28.4691C41.8454 26.9275 41.5895 25.333 40.8344 23.9617C40.0794 22.5903 38.8727 21.5285 37.4233 20.9599L36.0218 20.4086C36.3168 19.3329 36.6667 18.2706 36.6667 17.1411C36.6667 15.9951 36.3763 14.8681 35.823 13.8671C35.2698 12.8661 34.472 12.0244 33.5055 11.4219C32.539 10.8194 31.4359 10.4761 30.3009 10.4246C29.1658 10.3731 28.0366 10.6151 27.0204 11.1276C26.0041 11.6401 25.1347 12.4062 24.4945 13.353C23.8543 14.2998 23.4647 15.3959 23.3627 16.5373C23.2607 17.6787 23.4496 18.8274 23.9115 19.8745C24.3734 20.9215 25.093 21.8321 26.002 22.5197L24.0023 25.209C23.0974 24.5246 22.3142 23.6903 21.6861 22.7416Z" fill="#DA5D15" fill-opacity="0.2"/>
<path d="M50.0028 21.5522C50.0033 20.1732 50.2841 18.8088 50.828 17.5436C51.3719 16.2784 52.1673 15.1391 53.165 14.1962C54.1627 13.2533 55.3416 12.5268 56.6287 12.0617C57.9157 11.5965 59.2837 11.4026 60.6481 11.4918C62.0124 11.5811 63.3441 11.9516 64.5608 12.5806C65.7776 13.2095 66.8535 14.0835 67.7221 15.1485C68.5907 16.2134 69.2336 17.4468 69.6109 18.7723C69.9882 20.0978 70.092 21.4873 69.9159 22.8548C71.8399 23.9503 73.3499 25.6577 74.2102 27.7103C75.0704 29.7629 75.2324 32.0452 74.6709 34.2005C74.1093 36.3557 72.8558 38.2627 71.1062 39.6235C69.3566 40.9843 67.2094 41.7222 65.0001 41.722H61.6674V46.7645H58.3346V41.722H54.1687C52.0795 41.723 50.0526 41.0039 48.424 39.6839C46.7953 38.364 45.6627 36.5224 45.2137 34.4643C44.7647 32.4061 45.0263 30.2551 45.9552 28.3674C46.884 26.4798 48.4244 24.969 50.3211 24.0852C50.109 23.2579 50.0021 22.4067 50.0028 21.5522ZM51.6858 27.1527C50.4883 27.7238 49.519 28.6888 48.9373 29.8892C48.3555 31.0896 48.196 32.4539 48.4849 33.7578C48.7737 35.0618 49.4938 36.2278 50.5268 37.0643C51.5597 37.9007 52.8441 38.3578 54.1687 38.3604H65.0001C66.5553 38.362 68.0621 37.8151 69.2596 36.8143C70.4571 35.8135 71.2701 34.4219 71.5576 32.8803C71.8452 31.3387 71.5893 29.7442 70.8342 28.3728C70.0791 27.0015 68.8724 25.9396 67.423 25.371L66.0216 24.8197C66.3166 23.744 66.6665 22.6817 66.6665 21.5522C66.6665 20.4062 66.3761 19.2792 65.8228 18.2782C65.2695 17.2773 64.4717 16.4356 63.5053 15.8331C62.5388 15.2306 61.4356 14.8872 60.3006 14.8357C59.1656 14.7842 58.0363 15.0262 57.0201 15.5387C56.0039 16.0513 55.1344 16.8173 54.4943 17.7641C53.8541 18.7109 53.4645 19.807 53.3625 20.9484C53.2604 22.0898 53.4493 23.2386 53.9113 24.2856C54.3732 25.3327 55.0928 26.2432 56.0017 26.9308L54.0021 29.6201C53.0972 28.9357 52.314 28.1014 51.6858 27.1527Z" fill="#DA5D15" fill-opacity="0.2"/>
<path d="M5.00328 34.7876C5.00374 33.4085 5.28461 32.0442 5.82851 30.779C6.37242 29.5137 7.16781 28.3744 8.16552 27.4316C9.16323 26.4887 10.3421 25.7622 11.6291 25.297C12.9162 24.8319 14.2842 24.6379 15.6486 24.7272C17.0129 24.8164 18.3446 25.187 19.5613 25.8159C20.7781 26.4449 21.854 27.3188 22.7226 28.3838C23.5912 29.4488 24.2341 30.6822 24.6114 32.0077C24.9887 33.3332 25.0925 34.7226 24.9164 36.0902C26.8404 37.1857 28.3504 38.8931 29.2107 40.9457C30.0709 42.9983 30.2329 45.2805 29.6713 47.4358C29.1098 49.5911 27.8563 51.4981 26.1067 52.8589C24.3571 54.2196 22.2099 54.9576 20.0006 54.9574H16.6679V59.9998H13.3351V54.9574H9.16921C7.07996 54.9583 5.0531 54.2393 3.42446 52.9193C1.79582 51.5993 0.66316 49.7577 0.214162 47.6996C-0.234837 45.6415 0.0267746 43.4904 0.95565 41.6028C1.88453 39.7152 3.42491 38.2043 5.32156 37.3206C5.10951 36.4932 5.00256 35.6421 5.00328 34.7876ZM6.68632 40.388C5.48877 40.9591 4.51948 41.9242 3.93775 43.1245C3.35603 44.3249 3.19649 45.6892 3.48537 46.9932C3.77424 48.2971 4.49433 49.4632 5.52728 50.2996C6.56023 51.1361 7.84458 51.5931 9.16921 51.5957H20.0006C21.5558 51.5974 23.0626 51.0505 24.2601 50.0497C25.4576 49.0489 26.2706 47.6572 26.5581 46.1156C26.8457 44.574 26.5898 42.9795 25.8347 41.6082C25.0796 40.2368 23.8729 39.175 22.4235 38.6064L21.0221 38.0551C21.317 36.9794 21.667 35.9171 21.667 34.7876C21.667 33.6415 21.3765 32.5145 20.8233 31.5136C20.27 30.5126 19.4722 29.6709 18.5057 29.0684C17.5393 28.4659 16.4361 28.1226 15.3011 28.0711C14.1661 28.0196 13.0368 28.2616 12.0206 28.7741C11.0044 29.2866 10.1349 30.0526 9.49475 30.9994C8.85459 31.9462 8.46499 33.0424 8.36296 34.1838C8.26092 35.3252 8.44983 36.4739 8.91175 37.521C9.37368 38.568 10.0933 39.4786 11.0022 40.1662L9.00257 42.8555C8.09768 42.1711 7.31448 41.3368 6.68632 40.388Z" fill="#DA5D15" fill-opacity="0.2"/>
<path d="M61.4733 34.7876C61.4737 33.4085 61.7546 32.0442 62.2985 30.779C62.8424 29.5137 63.6378 28.3744 64.6355 27.4316C65.6332 26.4887 66.812 25.7622 68.0991 25.297C69.3862 24.8319 70.7542 24.6379 72.1185 24.7272C73.4829 24.8164 74.8146 25.187 76.0313 25.8159C77.248 26.4449 78.324 27.3188 79.1926 28.3838C80.0612 29.4488 80.704 30.6822 81.0814 32.0077C81.4587 33.3332 81.5625 34.7226 81.3864 36.0902C83.3103 37.1857 84.8204 38.8931 85.6806 40.9457C86.5409 42.9983 86.7029 45.2805 86.1413 47.4358C85.5798 49.5911 84.3263 51.4981 82.5767 52.8589C80.8271 54.2196 78.6799 54.9576 76.4706 54.9574H73.1378V59.9998H69.8051V54.9574H65.6392C63.5499 54.9583 61.5231 54.2393 59.8944 52.9193C58.2658 51.5993 57.1331 49.7577 56.6841 47.6996C56.2351 45.6415 56.4967 43.4904 57.4256 41.6028C58.3545 39.7152 59.8949 38.2043 61.7915 37.3206C61.5795 36.4932 61.4725 35.6421 61.4733 34.7876ZM63.1563 40.388C61.9587 40.9591 60.9894 41.9242 60.4077 43.1245C59.826 44.3249 59.6665 45.6892 59.9553 46.9932C60.2442 48.2971 60.9643 49.4632 61.9973 50.2996C63.0302 51.1361 64.3145 51.5931 65.6392 51.5957H76.4706C78.0257 51.5974 79.5325 51.0505 80.7301 50.0497C81.9276 49.0489 82.7405 47.6572 83.0281 46.1156C83.3156 44.574 83.0597 42.9795 82.3047 41.6082C81.5496 40.2368 80.3429 39.175 78.8935 38.6064L77.4921 38.0551C77.787 36.9794 78.1369 35.9171 78.1369 34.7876C78.1369 33.6415 77.8465 32.5145 77.2932 31.5136C76.74 30.5126 75.9422 29.6709 74.9757 29.0684C74.0092 28.4659 72.9061 28.1226 71.7711 28.0711C70.636 28.0196 69.5068 28.2616 68.4906 28.7741C67.4744 29.2866 66.6049 30.0526 65.9647 30.9994C65.3246 31.9462 64.935 33.0424 64.8329 34.1838C64.7309 35.3252 64.9198 36.4739 65.3817 37.521C65.8436 38.568 66.5632 39.4786 67.4722 40.1662L65.4725 42.8555C64.5677 42.1711 63.7845 41.3368 63.1563 40.388Z" fill="#DA5D15" fill-opacity="0.2"/>
</svg>
